<?xml version="1.0" standalone="no"?>
<!DOCTYPE svg PUBLIC "-//W3C//DTD SVG 1.1//EN"
"http://www.w3.org/Graphics/SVG/1.1/DTD/svg11.dtd">

<svg width="974" height="524" view_box="0 0 974 524"
xmlns="http://www.w3.org/2000/svg"
xmlns:link="http://www.w3.org/1999/xlink">\n\n<desc>Généré par Mocodo 2.3.7 le Fri, 12 Nov 2021 03:17:44</desc>

<rect id="frame" x="0" y="0" width="974" height="524" fill="#ffffff" stroke="none" stroke-width="0"/>

<!-- Association MISE_EN_PLACE -->
<line x1="253" y1="194" x2="80" y2="194" stroke="#d6604d" stroke-width="2"/>
<text x="156" y="211.0" fill="#4d4d4d" font-family="Verdana" font-size="12">0,N</text>
<line x1="80" y1="346" x2="80" y2="194" stroke="#d6604d" stroke-width="2"/>
<text x="85.0" y="304" fill="#4d4d4d" font-family="Verdana" font-size="12">0,N</text>
<g id="association-MISE_EN_PLACE">
	<path d="M 137 160 a 14 14 90 0 1 14 14 V 185 h -142 V 174 a 14 14 90 0 1 14 -14" fill="#f4a582" stroke="#f4a582" stroke-width="0"/>
	<path d="M 151 185.0 v 29 a 14 14 90 0 1 -14 14 H 23 a 14 14 90 0 1 -14 -14 V 185.0 H 142" fill="#fddbc7" stroke="#fddbc7" stroke-width="0"/>
	<rect x="9" y="160" width="142" height="68" fill="none" rx="14" stroke="#d6604d" stroke-width="2"/>
	<line x1="9" y1="185" x2="151" y2="185" stroke="#d6604d" stroke-width="1"/>
	<text x="29" y="177.7" fill="#000000" font-family="Verdana" font-size="12">MISE_EN_PLACE</text>
	<text x="16" y="202.8" fill="#000000" font-family="Verdana" font-size="12">descriptionSemis</text>
	<text x="16" y="219.8" fill="#000000" font-family="Verdana" font-size="12">descriptionPlantation</text>
</g>

<!-- Association EST_DORNEMENTS -->
<line x1="709" y1="346" x2="709" y2="464" stroke="#d6604d" stroke-width="2"/>
<text x="714.0" y="405" fill="#4d4d4d" font-family="Verdana" font-size="12">0,1</text>
<line x1="886" y1="464" x2="709" y2="464" stroke="#d6604d" stroke-width="2"/>
<text x="781" y="481.0" fill="#4d4d4d" font-family="Verdana" font-size="12">0,1</text>
<g id="association-EST_DORNEMENTS">
	<path d="M 761 439 a 14 14 90 0 1 14 14 V 464 h -132 V 453 a 14 14 90 0 1 14 -14" fill="#f4a582" stroke="#f4a582" stroke-width="0"/>
	<path d="M 775 464.0 v 11 a 14 14 90 0 1 -14 14 H 657 a 14 14 90 0 1 -14 -14 V 464.0 H 132" fill="#fddbc7" stroke="#fddbc7" stroke-width="0"/>
	<rect x="643" y="439" width="132" height="50" fill="none" rx="14" stroke="#d6604d" stroke-width="2"/>
	<line x1="643" y1="464" x2="775" y2="464" stroke="#d6604d" stroke-width="1"/>
	<text x="650" y="456.7" fill="#000000" font-family="Verdana" font-size="12">EST_DORNEMENTS</text>
</g>

<!-- Association EST_DECOUPEE -->
<line x1="253" y1="464" x2="420" y2="464" stroke="#d6604d" stroke-width="2"/>
<text x="302" y="481.0" fill="#4d4d4d" font-family="Verdana" font-size="12">1,1</text>
<line x1="302" y1="483.0" x2="323" y2="483.0" stroke="#4d4d4d" stroke-width="1"/>
<line x1="568" y1="464" x2="420" y2="464" stroke="#d6604d" stroke-width="2"/>
<text x="501" y="481.0" fill="#4d4d4d" font-family="Verdana" font-size="12">1,N</text>
<g id="association-EST_DECOUPEE">
	<path d="M 462 439 a 14 14 90 0 1 14 14 V 464 h -112 V 453 a 14 14 90 0 1 14 -14" fill="#f4a582" stroke="#f4a582" stroke-width="0"/>
	<path d="M 476 464.0 v 11 a 14 14 90 0 1 -14 14 H 378 a 14 14 90 0 1 -14 -14 V 464.0 H 112" fill="#fddbc7" stroke="#fddbc7" stroke-width="0"/>
	<rect x="364" y="439" width="112" height="50" fill="none" rx="14" stroke="#d6604d" stroke-width="2"/>
	<line x1="364" y1="464" x2="476" y2="464" stroke="#d6604d" stroke-width="1"/>
	<text x="371" y="456.7" fill="#000000" font-family="Verdana" font-size="12">EST_DECOUPEE</text>
</g>

<!-- Association SE_COMPOSE -->
<line x1="568" y1="464" x2="568" y2="346" stroke="#d6604d" stroke-width="2"/>
<text x="573.0" y="405" fill="#4d4d4d" font-family="Verdana" font-size="12">1,1</text>
<line x1="709" y1="346" x2="568" y2="346" stroke="#d6604d" stroke-width="2"/>
<text x="645" y="363.0" fill="#4d4d4d" font-family="Verdana" font-size="12">1,N</text>
<g id="association-SE_COMPOSE">
	<path d="M 604 321 a 14 14 90 0 1 14 14 V 346 h -100 V 335 a 14 14 90 0 1 14 -14" fill="#f4a582" stroke="#f4a582" stroke-width="0"/>
	<path d="M 618 346.0 v 11 a 14 14 90 0 1 -14 14 H 532 a 14 14 90 0 1 -14 -14 V 346.0 H 100" fill="#fddbc7" stroke="#fddbc7" stroke-width="0"/>
	<rect x="518" y="321" width="100" height="50" fill="none" rx="14" stroke="#d6604d" stroke-width="2"/>
	<line x1="518" y1="346" x2="618" y2="346" stroke="#d6604d" stroke-width="1"/>
	<text x="525" y="338.7" fill="#000000" font-family="Verdana" font-size="12">SE_COMPOSE</text>
</g>

<!-- Association RECOLTE -->
<line x1="253" y1="194" x2="253" y2="346" stroke="#d6604d" stroke-width="2"/>
<text x="226.0" y="287" fill="#4d4d4d" font-family="Verdana" font-size="12">0,N</text>
<line x1="80" y1="346" x2="253" y2="346" stroke="#d6604d" stroke-width="2"/>
<text x="122" y="363.0" fill="#4d4d4d" font-family="Verdana" font-size="12">0,N</text>
<g id="association-RECOLTE">
	<path d="M 308 295 a 14 14 90 0 1 14 14 V 320 h -138 V 309 a 14 14 90 0 1 14 -14" fill="#f4a582" stroke="#f4a582" stroke-width="0"/>
	<path d="M 322 320.0 v 63 a 14 14 90 0 1 -14 14 H 198 a 14 14 90 0 1 -14 -14 V 320.0 H 138" fill="#fddbc7" stroke="#fddbc7" stroke-width="0"/>
	<rect x="184" y="295" width="138" height="102" fill="none" rx="14" stroke="#d6604d" stroke-width="2"/>
	<line x1="184" y1="320" x2="322" y2="320" stroke="#d6604d" stroke-width="1"/>
	<text x="224" y="312.7" fill="#000000" font-family="Verdana" font-size="12">RECOLTE</text>
	<text x="191" y="337.7" fill="#000000" font-family="Verdana" font-size="12">descriptionRecolte</text>
	<text x="191" y="354.8" fill="#000000" font-family="Verdana" font-size="12">quantitéProduite</text>
	<text x="191" y="371.8" fill="#000000" font-family="Verdana" font-size="12">qualitéGustative</text>
	<text x="191" y="388.8" fill="#000000" font-family="Verdana" font-size="12">commentaireRécolte</text>
</g>

<!-- Association OCCUPE -->
<line x1="253" y1="194" x2="420" y2="346" stroke="#d6604d" stroke-width="2"/>
<text x="328" y="256.313878901" fill="#4d4d4d" font-family="Verdana" font-size="12">0,N</text>
<line x1="253" y1="464" x2="420" y2="346" stroke="#d6604d" stroke-width="2"/>
<text x="302" y="444.533600359" fill="#4d4d4d" font-family="Verdana" font-size="12">0,N</text>
<g id="association-OCCUPE">
	<path d="M 472 312 a 14 14 90 0 1 14 14 V 337 h -132 V 326 a 14 14 90 0 1 14 -14" fill="#f4a582" stroke="#f4a582" stroke-width="0"/>
	<path d="M 486 337.0 v 29 a 14 14 90 0 1 -14 14 H 368 a 14 14 90 0 1 -14 -14 V 337.0 H 132" fill="#fddbc7" stroke="#fddbc7" stroke-width="0"/>
	<rect x="354" y="312" width="132" height="68" fill="none" rx="14" stroke="#d6604d" stroke-width="2"/>
	<line x1="354" y1="337" x2="486" y2="337" stroke="#d6604d" stroke-width="1"/>
	<text x="394" y="329.7" fill="#000000" font-family="Verdana" font-size="12">OCCUPE</text>
	<text x="361" y="354.8" fill="#000000" font-family="Verdana" font-size="12">typeMiseEnPlace</text>
	<text x="361" y="371.8" fill="#000000" font-family="Verdana" font-size="12">texteConsequences</text>
</g>

<!-- Association EST_VERGER -->
<line x1="709" y1="346" x2="709" y2="194" stroke="#d6604d" stroke-width="2"/>
<text x="714.0" y="296" fill="#4d4d4d" font-family="Verdana" font-size="12">0,1</text>
<line x1="709" y1="68" x2="709" y2="194" stroke="#d6604d" stroke-width="2"/>
<text x="714.0" y="110" fill="#4d4d4d" font-family="Verdana" font-size="12">0,1</text>
<g id="association-EST_VERGER">
	<path d="M 743 169 a 14 14 90 0 1 14 14 V 194 h -96 V 183 a 14 14 90 0 1 14 -14" fill="#f4a582" stroke="#f4a582" stroke-width="0"/>
	<path d="M 757 194.0 v 11 a 14 14 90 0 1 -14 14 H 675 a 14 14 90 0 1 -14 -14 V 194.0 H 96" fill="#fddbc7" stroke="#fddbc7" stroke-width="0"/>
	<rect x="661" y="169" width="96" height="50" fill="none" rx="14" stroke="#d6604d" stroke-width="2"/>
	<line x1="661" y1="194" x2="757" y2="194" stroke="#d6604d" stroke-width="1"/>
	<text x="668" y="186.7" fill="#000000" font-family="Verdana" font-size="12">EST_VERGER</text>
</g>

<!-- Association EST_PRODUITE -->
<line x1="80" y1="68" x2="253" y2="68" stroke="#d6604d" stroke-width="2"/>
<text x="136" y="85.0" fill="#4d4d4d" font-family="Verdana" font-size="12">0,N</text>
<line x1="253" y1="194" x2="253" y2="68" stroke="#d6604d" stroke-width="2"/>
<text x="258.0" y="110" fill="#4d4d4d" font-family="Verdana" font-size="12">1,N</text>
<g id="association-EST_PRODUITE">
	<path d="M 301 43 a 14 14 90 0 1 14 14 V 68 h -124 V 57 a 14 14 90 0 1 14 -14" fill="#f4a582" stroke="#f4a582" stroke-width="0"/>
	<path d="M 315 68.0 v 11 a 14 14 90 0 1 -14 14 H 205 a 14 14 90 0 1 -14 -14 V 68.0 H 124" fill="#fddbc7" stroke="#fddbc7" stroke-width="0"/>
	<rect x="191" y="43" width="124" height="50" fill="none" rx="14" stroke="#d6604d" stroke-width="2"/>
	<line x1="191" y1="68" x2="315" y2="68" stroke="#d6604d" stroke-width="1"/>
	<text x="205" y="60.7" fill="#000000" font-family="Verdana" font-size="12">EST_PRODUITE</text>
	<text x="198" y="85.8" fill="#000000" font-family="Verdana" font-size="12">versionProduction</text>
</g>

<!-- Association DE_VARIETE -->
<line x1="253" y1="194" x2="420" y2="194" stroke="#d6604d" stroke-width="2"/>
<text x="328" y="186.0" fill="#4d4d4d" font-family="Verdana" font-size="12">1,1</text>
<line x1="420" y1="68" x2="420" y2="194" stroke="#d6604d" stroke-width="2"/>
<text x="425.0" y="144" fill="#4d4d4d" font-family="Verdana" font-size="12">1,N</text>
<g id="association-DE_VARIETE">
	<path d="M 452 169 a 14 14 90 0 1 14 14 V 194 h -92 V 183 a 14 14 90 0 1 14 -14" fill="#f4a582" stroke="#f4a582" stroke-width="0"/>
	<path d="M 466 194.0 v 11 a 14 14 90 0 1 -14 14 H 388 a 14 14 90 0 1 -14 -14 V 194.0 H 92" fill="#fddbc7" stroke="#fddbc7" stroke-width="0"/>
	<rect x="374" y="169" width="92" height="50" fill="none" rx="14" stroke="#d6604d" stroke-width="2"/>
	<line x1="374" y1="194" x2="466" y2="194" stroke="#d6604d" stroke-width="1"/>
	<text x="381" y="186.7" fill="#000000" font-family="Verdana" font-size="12">DE_VARIETE</text>
</g>

<!-- Association EST_POTAGER -->
<line x1="709" y1="346" x2="886" y2="346" stroke="#d6604d" stroke-width="2"/>
<text x="751" y="363.0" fill="#4d4d4d" font-family="Verdana" font-size="12">0,1</text>
<line x1="886" y1="194" x2="886" y2="346" stroke="#d6604d" stroke-width="2"/>
<text x="891.0" y="236" fill="#4d4d4d" font-family="Verdana" font-size="12">0,1</text>
<g id="association-EST_POTAGER">
	<path d="M 924 321 a 14 14 90 0 1 14 14 V 346 h -104 V 335 a 14 14 90 0 1 14 -14" fill="#f4a582" stroke="#f4a582" stroke-width="0"/>
	<path d="M 938 346.0 v 11 a 14 14 90 0 1 -14 14 H 848 a 14 14 90 0 1 -14 -14 V 346.0 H 104" fill="#fddbc7" stroke="#fddbc7" stroke-width="0"/>
	<rect x="834" y="321" width="104" height="50" fill="none" rx="14" stroke="#d6604d" stroke-width="2"/>
	<line x1="834" y1="346" x2="938" y2="346" stroke="#d6604d" stroke-width="1"/>
	<text x="841" y="338.7" fill="#000000" font-family="Verdana" font-size="12">EST_POTAGER</text>
</g>

<!-- Association INFESTATION -->
<line x1="80" y1="346" x2="80" y2="464" stroke="#d6604d" stroke-width="2"/>
<text x="85.0" y="397" fill="#4d4d4d" font-family="Verdana" font-size="12">0,N</text>
<line x1="253" y1="464" x2="80" y2="464" stroke="#d6604d" stroke-width="2"/>
<text x="182" y="481.0" fill="#4d4d4d" font-family="Verdana" font-size="12">0,N</text>
<g id="association-INFESTATION">
	<path d="M 132 439 a 14 14 90 0 1 14 14 V 464 h -132 V 453 a 14 14 90 0 1 14 -14" fill="#f4a582" stroke="#f4a582" stroke-width="0"/>
	<path d="M 146 464.0 v 11 a 14 14 90 0 1 -14 14 H 28 a 14 14 90 0 1 -14 -14 V 464.0 H 132" fill="#fddbc7" stroke="#fddbc7" stroke-width="0"/>
	<rect x="14" y="439" width="132" height="50" fill="none" rx="14" stroke="#d6604d" stroke-width="2"/>
	<line x1="14" y1="464" x2="146" y2="464" stroke="#d6604d" stroke-width="1"/>
	<text x="38" y="456.7" fill="#000000" font-family="Verdana" font-size="12">INFESTATION</text>
	<text x="21" y="481.8" fill="#000000" font-family="Verdana" font-size="12">typePlanteSauvage</text>
</g>

<!-- Association SUBISSENT -->
<line x1="420" y1="68" x2="568" y2="68" stroke="#d6604d" stroke-width="2"/>
<text x="478" y="85.0" fill="#4d4d4d" font-family="Verdana" font-size="12">0,N</text>
<line x1="568" y1="194" x2="568" y2="68" stroke="#d6604d" stroke-width="2"/>
<text x="573.0" y="144" fill="#4d4d4d" font-family="Verdana" font-size="12">0,N</text>
<g id="association-SUBISSENT">
	<path d="M 597 43 a 14 14 90 0 1 14 14 V 68 h -86 V 57 a 14 14 90 0 1 14 -14" fill="#f4a582" stroke="#f4a582" stroke-width="0"/>
	<path d="M 611 68.0 v 11 a 14 14 90 0 1 -14 14 H 539 a 14 14 90 0 1 -14 -14 V 68.0 H 86" fill="#fddbc7" stroke="#fddbc7" stroke-width="0"/>
	<rect x="525" y="43" width="86" height="50" fill="none" rx="14" stroke="#d6604d" stroke-width="2"/>
	<line x1="525" y1="68" x2="611" y2="68" stroke="#d6604d" stroke-width="1"/>
	<text x="532" y="60.7" fill="#000000" font-family="Verdana" font-size="12">SUBISSENT</text>
</g>

<!-- Entity PARCELLES -->
<g id="entity-PARCELLES">
	<g id="frame-PARCELLES">
		<rect x="528" y="413" width="80" height="25" fill="#bababa" stroke="#bababa" stroke-width="0"/>
		<rect x="528" y="438.0" width="80" height="77" fill="#e0e0e0" stroke="#e0e0e0" stroke-width="0"/>
		<rect x="528" y="413" width="80" height="102" fill="none" stroke="#878787" stroke-width="2"/>
		<line x1="528" y1="438" x2="608" y2="438" stroke="#878787" stroke-width="1"/>
	</g>
	<text x="533" y="430.7" fill="#000000" font-family="Verdana" font-size="12">PARCELLES</text>
	<text x="533" y="455.7" fill="#000000" font-family="Verdana" font-size="12">latP</text>
	<line x1="533" y1="458" x2="556" y2="458" stroke="#000000" stroke-width="1"/>
	<text x="533" y="472.8" fill="#000000" font-family="Verdana" font-size="12">longP</text>
	<line x1="533" y1="475" x2="567" y2="475" stroke="#000000" stroke-width="1"/>
	<text x="533" y="489.8" fill="#000000" font-family="Verdana" font-size="12">longueurP</text>
	<text x="533" y="506.8" fill="#000000" font-family="Verdana" font-size="12">largeurP</text>
</g>

<!-- Entity MENACES -->
<g id="entity-MENACES">
	<g id="frame-MENACES">
		<rect x="507" y="152" width="122" height="25" fill="#bababa" stroke="#bababa" stroke-width="0"/>
		<rect x="507" y="177.0" width="122" height="59" fill="#e0e0e0" stroke="#e0e0e0" stroke-width="0"/>
		<rect x="507" y="152" width="122" height="84" fill="none" stroke="#878787" stroke-width="2"/>
		<line x1="507" y1="177" x2="629" y2="177" stroke="#878787" stroke-width="1"/>
	</g>
	<text x="538" y="169.7" fill="#000000" font-family="Verdana" font-size="12">MENACES</text>
	<text x="512" y="194.8" fill="#000000" font-family="Verdana" font-size="12">nomMenace</text>
	<line x1="512" y1="197" x2="585" y2="197" stroke="#000000" stroke-width="1"/>
	<text x="512" y="211.8" fill="#000000" font-family="Verdana" font-size="12">descriptionMenace</text>
	<text x="512" y="228.8" fill="#000000" font-family="Verdana" font-size="12">listeSolutions</text>
</g>

<!-- Entity PLANTES -->
<g id="entity-PLANTES">
	<g id="frame-PLANTES">
		<rect x="367" y="9" width="106" height="25" fill="#bababa" stroke="#bababa" stroke-width="0"/>
		<rect x="367" y="34.0" width="106" height="93" fill="#e0e0e0" stroke="#e0e0e0" stroke-width="0"/>
		<rect x="367" y="9" width="106" height="118" fill="none" stroke="#878787" stroke-width="2"/>
		<line x1="367" y1="34" x2="473" y2="34" stroke="#878787" stroke-width="1"/>
	</g>
	<text x="392" y="26.7" fill="#000000" font-family="Verdana" font-size="12">PLANTES</text>
	<text x="372" y="51.7" fill="#000000" font-family="Verdana" font-size="12">nomPlante</text>
	<line x1="372" y1="54" x2="437" y2="54" stroke="#000000" stroke-width="1"/>
	<text x="372" y="68.8" fill="#000000" font-family="Verdana" font-size="12">nomLatin</text>
	<line x1="372" y1="71" x2="429" y2="71" stroke="#000000" stroke-width="1"/>
	<text x="372" y="85.8" fill="#000000" font-family="Verdana" font-size="12">catégoriePlante</text>
	<text x="372" y="102.8" fill="#000000" font-family="Verdana" font-size="12">typePlante</text>
	<text x="372" y="119.8" fill="#000000" font-family="Verdana" font-size="12">sousTypePlante</text>
</g>

<!-- Entity JARDINS_VERGER -->
<g id="entity-JARDINS_VERGER">
	<g id="frame-JARDINS_VERGER">
		<rect x="648" y="43" width="122" height="25" fill="#bababa" stroke="#bababa" stroke-width="0"/>
		<rect x="648" y="68.0" width="122" height="25" fill="#e0e0e0" stroke="#e0e0e0" stroke-width="0"/>
		<rect x="648" y="43" width="122" height="50" fill="none" stroke="#878787" stroke-width="2"/>
		<line x1="648" y1="68" x2="770" y2="68" stroke="#878787" stroke-width="1"/>
	</g>
	<text x="653" y="60.7" fill="#000000" font-family="Verdana" font-size="12">JARDINS_VERGER</text>
	<text x="653" y="85.8" fill="#000000" font-family="Verdana" font-size="12">hauteurMax</text>
	<line x1="653" y1="88" x2="725" y2="88" stroke="#000000" stroke-width="1"/>
</g>

<!-- Entity JARDINS_DORNEMENTS -->
<g id="entity-JARDINS_DORNEMENTS">
	<g id="frame-JARDINS_DORNEMENTS">
		<rect x="807" y="439" width="158" height="25" fill="#bababa" stroke="#bababa" stroke-width="0"/>
		<rect x="807" y="464.0" width="158" height="25" fill="#e0e0e0" stroke="#e0e0e0" stroke-width="0"/>
		<rect x="807" y="439" width="158" height="50" fill="none" stroke="#878787" stroke-width="2"/>
		<line x1="807" y1="464" x2="965" y2="464" stroke="#878787" stroke-width="1"/>
	</g>
	<text x="812" y="456.7" fill="#000000" font-family="Verdana" font-size="12">JARDINS_DORNEMENTS</text>
	<text x="812" y="481.8" fill="#000000" font-family="Verdana" font-size="12">estDornements</text>
	<line x1="812" y1="484" x2="905" y2="484" stroke="#000000" stroke-width="1"/>
</g>

<!-- Entity VARIETES -->
<g id="entity-VARIETES">
	<g id="frame-VARIETES">
		<rect x="183" y="118" width="140" height="25" fill="#bababa" stroke="#bababa" stroke-width="0"/>
		<rect x="183" y="143.0" width="140" height="127" fill="#e0e0e0" stroke="#e0e0e0" stroke-width="0"/>
		<rect x="183" y="118" width="140" height="152" fill="none" stroke="#878787" stroke-width="2"/>
		<line x1="183" y1="143" x2="323" y2="143" stroke="#878787" stroke-width="1"/>
	</g>
	<text x="222" y="135.7" fill="#000000" font-family="Verdana" font-size="12">VARIETES</text>
	<text x="188" y="160.7" fill="#000000" font-family="Verdana" font-size="12">nomVariete</text>
	<line x1="188" y1="163" x2="258" y2="163" stroke="#000000" stroke-width="1"/>
	<text x="188" y="177.7" fill="#000000" font-family="Verdana" font-size="12">annéeMiseSurMarché</text>
	<text x="188" y="194.8" fill="#000000" font-family="Verdana" font-size="12">précocité</text>
	<text x="188" y="211.8" fill="#000000" font-family="Verdana" font-size="12">descriptionEntretien</text>
	<text x="188" y="228.8" fill="#000000" font-family="Verdana" font-size="12">nbJoursLevée</text>
	<text x="188" y="245.8" fill="#000000" font-family="Verdana" font-size="12">commentaireVariete</text>
	<text x="188" y="262.8" fill="#000000" font-family="Verdana" font-size="12">infoSol</text>
</g>

<!-- Entity JARDINS_POTAGER -->
<g id="entity-JARDINS_POTAGER">
	<g id="frame-JARDINS_POTAGER">
		<rect x="821" y="169" width="130" height="25" fill="#bababa" stroke="#bababa" stroke-width="0"/>
		<rect x="821" y="194.0" width="130" height="25" fill="#e0e0e0" stroke="#e0e0e0" stroke-width="0"/>
		<rect x="821" y="169" width="130" height="50" fill="none" stroke="#878787" stroke-width="2"/>
		<line x1="821" y1="194" x2="951" y2="194" stroke="#878787" stroke-width="1"/>
	</g>
	<text x="826" y="186.7" fill="#000000" font-family="Verdana" font-size="12">JARDINS_POTAGER</text>
	<text x="826" y="211.8" fill="#000000" font-family="Verdana" font-size="12">typeSol</text>
	<line x1="826" y1="214" x2="872" y2="214" stroke="#000000" stroke-width="1"/>
</g>

<!-- Entity PERIODE -->
<g id="entity-PERIODE">
	<g id="frame-PERIODE">
		<rect x="43" y="312" width="74" height="25" fill="#bababa" stroke="#bababa" stroke-width="0"/>
		<rect x="43" y="337.0" width="74" height="43" fill="#e0e0e0" stroke="#e0e0e0" stroke-width="0"/>
		<rect x="43" y="312" width="74" height="68" fill="none" stroke="#878787" stroke-width="2"/>
		<line x1="43" y1="337" x2="117" y2="337" stroke="#878787" stroke-width="1"/>
	</g>
	<text x="52" y="329.7" fill="#000000" font-family="Verdana" font-size="12">PERIODE</text>
	<text x="48" y="354.8" fill="#000000" font-family="Verdana" font-size="12">dateDebut</text>
	<line x1="48" y1="357" x2="112" y2="357" stroke="#000000" stroke-width="1"/>
	<text x="48" y="371.8" fill="#000000" font-family="Verdana" font-size="12">dateFin</text>
	<line x1="48" y1="374" x2="93" y2="374" stroke="#000000" stroke-width="1"/>
</g>

<!-- Entity RANGS -->
<g id="entity-RANGS">
	<g id="frame-RANGS">
		<rect x="209" y="422" width="88" height="25" fill="#bababa" stroke="#bababa" stroke-width="0"/>
		<rect x="209" y="447.0" width="88" height="59" fill="#e0e0e0" stroke="#e0e0e0" stroke-width="0"/>
		<rect x="209" y="422" width="88" height="84" fill="none" stroke="#878787" stroke-width="2"/>
		<line x1="209" y1="447" x2="297" y2="447" stroke="#878787" stroke-width="1"/>
	</g>
	<text x="231" y="439.7" fill="#000000" font-family="Verdana" font-size="12">RANGS</text>
	<text x="214" y="464.8" fill="#000000" font-family="Verdana" font-size="12">numeroRang</text>
	<line x1="214" y1="467" x2="292" y2="467" style="fill:none;stroke:#000000;stroke-width:1;stroke-dasharray:4;"/>
	<text x="214" y="481.8" fill="#000000" font-family="Verdana" font-size="12">latR</text>
	<text x="214" y="498.8" fill="#000000" font-family="Verdana" font-size="12">longR</text>
</g>

<!-- Entity JARDINS -->
<g id="entity-JARDINS">
	<g id="frame-JARDINS">
		<rect x="672" y="304" width="74" height="25" fill="#bababa" stroke="#bababa" stroke-width="0"/>
		<rect x="672" y="329.0" width="74" height="59" fill="#e0e0e0" stroke="#e0e0e0" stroke-width="0"/>
		<rect x="672" y="304" width="74" height="84" fill="none" stroke="#878787" stroke-width="2"/>
		<line x1="672" y1="329" x2="746" y2="329" stroke="#878787" stroke-width="1"/>
	</g>
	<text x="682" y="321.7" fill="#000000" font-family="Verdana" font-size="12">JARDINS</text>
	<text x="677" y="346.8" fill="#000000" font-family="Verdana" font-size="12">idJardin</text>
	<line x1="677" y1="349" x2="725" y2="349" stroke="#000000" stroke-width="1"/>
	<text x="677" y="363.8" fill="#000000" font-family="Verdana" font-size="12">nomJardin</text>
	<text x="677" y="380.8" fill="#000000" font-family="Verdana" font-size="12">surface</text>
</g>

<!-- Entity SEMANCIERS -->
<g id="entity-SEMANCIERS">
	<g id="frame-SEMANCIERS">
		<rect x="29" y="34" width="102" height="25" fill="#bababa" stroke="#bababa" stroke-width="0"/>
		<rect x="29" y="59.0" width="102" height="43" fill="#e0e0e0" stroke="#e0e0e0" stroke-width="0"/>
		<rect x="29" y="34" width="102" height="68" fill="none" stroke="#878787" stroke-width="2"/>
		<line x1="29" y1="59" x2="131" y2="59" stroke="#878787" stroke-width="1"/>
	</g>
	<text x="39" y="51.7" fill="#000000" font-family="Verdana" font-size="12">SEMANCIERS</text>
	<text x="34" y="76.8" fill="#000000" font-family="Verdana" font-size="12">nomSemancier</text>
	<line x1="34" y1="79" x2="125" y2="79" stroke="#000000" stroke-width="1"/>
	<text x="34" y="93.8" fill="#000000" font-family="Verdana" font-size="12">siteweb</text>
	<line x1="34" y1="96" x2="81" y2="96" stroke="#000000" stroke-width="1"/>
</g>
</svg>